<?xml version="1.0" encoding="UTF-8" standalone="no"?>
<svg
   version="1.0"
   width="480"
   height="320"
   viewBox="0 0 360 240"
   preserveAspectRatio="xMidYMid meet"
   id="svg1500"
   sodipodi:docname="frets.svg"
   inkscape:version="1.1.1 (3bf5ae0d25, 2021-09-20)"
   xmlns:inkscape="http://www.inkscape.org/namespaces/inkscape"
   xmlns:sodipodi="http://sodipodi.sourceforge.net/DTD/sodipodi-0.dtd"
   xmlns="http://www.w3.org/2000/svg"
   xmlns:svg="http://www.w3.org/2000/svg">
  <defs
     id="defs1504" />
  <sodipodi:namedview
     id="namedview1502"
     pagecolor="#ffffff"
     bordercolor="#666666"
     borderopacity="1.0"
     inkscape:pageshadow="2"
     inkscape:pageopacity="0.0"
     inkscape:pagecheckerboard="0"
     inkscape:document-units="pt"
     showgrid="false"
     units="px"
     inkscape:zoom="45.254834"
     inkscape:cx="4.452563"
     inkscape:cy="205.00572"
     inkscape:window-width="1920"
     inkscape:window-height="1017"
     inkscape:window-x="-8"
     inkscape:window-y="-8"
     inkscape:window-maximized="1"
     inkscape:current-layer="g1498"
     showguides="false" />
  <g
     transform="matrix(0,-0.1,-0.1,0,1006.8378,708.60259)"
     fill="#000000"
     stroke="none"
     id="g1498">
    <path
       d="M 4686.0259,8268.3781 V 6468.378 h 1200 1200 v 1800.0001 1799.9999 h -1200 -1200 z m 473.4374,1363.2185 v -340.2299 h -222.6561 -222.6563 v 340.2299 340.2298 h 222.6563 222.6561 z m 473.4376,0 v -340.2299 h -222.6563 -222.6561 v 340.2299 340.2298 h 222.6561 222.6563 z m 473.4375,0 v -340.2299 h -220.3125 -220.3125 v 340.2299 340.2298 h 220.3125 220.3125 z m 478.1249,0 v -340.2299 h -222.6561 -222.6563 v 340.2299 340.2298 h 222.6563 222.6561 z m 473.4376,0 v -340.2299 h -222.6563 -222.6561 v 340.2299 340.2298 h 222.6561 222.6563 z M 5159.4633,8925.8494 v -333.3333 h -222.6561 -222.6563 v 333.3333 333.3333 h 222.6563 222.6561 z m 473.4376,0 v -333.3333 h -222.6563 -222.6561 v 333.3333 333.3333 h 222.6561 222.6563 z m 473.4375,0 v -333.3333 h -220.3125 -220.3125 v 333.3333 333.3333 h 220.3125 220.3125 z m 478.1249,0 v -333.3333 h -222.6561 -222.6563 v 333.3333 333.3333 h 222.6563 222.6561 z m 473.4376,0 v -333.3333 h -222.6563 -222.6561 v 333.3333 333.3333 h 222.6561 222.6563 z m -1899.375,-697.4713 0.9374,-334.7128 h -222.6561 -222.6563 v 332.4139 c 0,182.9885 1.4062,334.2529 3.2812,335.6322 1.4063,1.8391 101.25,2.7586 221.25,2.2989 l 218.4376,-1.3794 z m 473.4374,0 0.9376,-334.7128 h -222.6563 -222.6561 v 332.4139 c 0,182.9885 1.4062,334.2529 3.2811,335.6322 1.4062,1.8391 101.2501,2.7586 221.2501,2.2989 l 218.4374,-1.3794 z m 474.3751,0.9195 v -335.6323 h -220.3125 -220.3125 v 335.6323 335.6322 h 220.3125 220.3125 z m 477.1875,-0.9195 0.9374,-334.7128 h -222.6561 -222.6563 v 332.4139 c 0,182.9885 1.4062,334.2529 3.2812,335.6322 1.4063,1.8391 101.2501,2.7586 221.25,2.2989 l 218.4376,-1.3794 z m 473.4374,0 0.9376,-334.7128 h -222.6563 -222.6561 v 332.4139 c 0,182.9885 1.4062,334.2529 3.2811,335.6322 1.4062,1.8391 101.2501,2.7586 221.2501,2.2989 l 218.4374,-1.3794 z m -1897.5,-697.9312 v -335.6322 h -222.6561 -222.6563 v 335.6322 335.6323 h 222.6563 222.6561 z m 473.4376,0 v -335.6322 h -222.6563 -222.6561 v 332.414 c 0,182.9884 1.4062,334.2528 3.2811,335.6321 1.4062,1.8391 101.7189,3.2184 222.6563,3.2184 h 219.375 z m 473.4375,0 v -335.6322 h -220.3125 -220.3125 v 335.6322 335.6323 h 220.3125 220.3125 z m 477.1875,-0.9194 0.9374,-334.7128 h -222.6561 -222.6563 v 335.6322 335.6323 l 221.7188,-0.9195 221.25,-1.3793 z m 474.375,0.9194 v -335.6322 h -222.6563 -222.6561 v 335.6322 335.6323 h 222.6561 222.6563 z M 5159.4633,6831.5963 v -335.6322 h -222.6561 -222.6563 v 335.6322 335.6323 h 222.6563 222.6561 z m 473.4376,0 v -335.6322 h -222.6563 -222.6561 v 335.6322 335.6323 h 222.6561 222.6563 z m 473.4375,0 v -335.6322 h -220.3125 -220.3125 v 335.6322 335.6323 h 220.3125 220.3125 z m 478.1249,0 v -335.6322 h -222.6561 -222.6563 v 335.6322 335.6323 h 222.6563 222.6561 z m 473.4376,0 v -335.6322 h -222.6563 -222.6561 v 335.6322 335.6323 h 222.6561 222.6563 z"
       id="path1484"
       style="stroke-width:0.464237" />
  </g>
</svg>
